ply
format ascii 1.0
comment Created by Blender 2.71 (sub 0) - www.blender.org, source file: ''
element vertex 24
property float x
property float y
property float z
property float nx
property float ny
property float nz
element face 6
property list uchar uint vertex_indices
end_header
0.989414 1.011034 -0.630959 -0.071832 -0.502557 -0.861555
0.442838 -0.630592 0.372196 -0.071832 -0.502557 -0.861555
-1.475655 -0.087627 0.215432 -0.071832 -0.502557 -0.861555
-0.929078 1.553998 -0.787723 -0.071832 -0.502557 -0.861555
1.133080 2.016148 1.092150 0.071833 0.502557 0.861555
-0.785414 2.559113 0.935386 0.071833 0.502557 0.861555
-1.331990 0.917488 1.938541 0.071833 0.502557 0.861555
0.586502 0.374523 2.095305 0.071833 0.502557 0.861555
0.989414 1.011034 -0.630959 0.959246 -0.271483 0.078382
1.133080 2.016148 1.092150 0.959246 -0.271483 0.078382
0.586502 0.374523 2.095305 0.959246 -0.271483 0.078382
0.442838 -0.630592 0.372196 0.959246 -0.271483 0.078382
0.442838 -0.630592 0.372196 -0.273288 -0.820813 0.501577
0.586502 0.374523 2.095305 -0.273288 -0.820813 0.501577
-1.331990 0.917488 1.938541 -0.273288 -0.820813 0.501577
-1.475655 -0.087627 0.215432 -0.273288 -0.820813 0.501577
-1.475655 -0.087627 0.215432 -0.959246 0.271482 -0.078382
-1.331990 0.917488 1.938541 -0.959246 0.271482 -0.078382
-0.785414 2.559113 0.935386 -0.959246 0.271482 -0.078382
-0.929078 1.553998 -0.787723 -0.959246 0.271482 -0.078382
1.133080 2.016148 1.092150 0.273288 0.820813 -0.501577
0.989414 1.011034 -0.630959 0.273288 0.820813 -0.501577
-0.929078 1.553998 -0.787723 0.273288 0.820813 -0.501577
-0.785414 2.559113 0.935386 0.273288 0.820813 -0.501577
4 0 1 2 3
4 4 5 6 7
4 8 9 10 11
4 12 13 14 15
4 16 17 18 19
4 20 21 22 23
